<?xml version="1.0" encoding="UTF-8" standalone="no"?>
<!DOCTYPE svg PUBLIC "-//W3C//DTD SVG 1.1//EN" "http://www.w3.org/Graphics/SVG/1.1/DTD/svg11.dtd">
<svg xmlns="http://www.w3.org/2000/svg" version="1.1" viewBox="0.00 0.00 236.00 236.00">
<path fill="#000000" d="
  M 152.81 141.75
  L 106.81 58.25
  A 0.46 0.46 0.0 0 1 106.98 57.63
  L 139.44 38.38
  A 0.46 0.46 0.0 0 1 140.08 38.56
  L 196.20 141.34
  A 0.46 0.46 0.0 0 1 195.79 142.02
  L 153.21 141.99
  A 0.46 0.46 0.0 0 1 152.81 141.75
  Z"
/>
<path fill="#000000" d="
  M 96.38 141.69
  L 71.09 95.87
  A 0.60 0.60 0.0 0 1 71.31 95.06
  L 103.53 75.97
  A 0.60 0.60 0.0 0 1 104.36 76.20
  L 139.84 141.12
  A 0.60 0.60 0.0 0 1 139.32 142.01
  L 96.90 142.00
  A 0.60 0.60 0.0 0 1 96.38 141.69
  Z"
/>
<path fill="#000000" d="
  M 35.05 132.41
  L 67.11 113.38
  A 0.70 0.70 0.0 0 1 68.08 113.65
  L 82.99 140.98
  A 0.70 0.70 0.0 0 1 82.37 142.02
  L 39.93 141.99
  A 0.70 0.70 0.0 0 1 39.32 141.63
  L 34.79 133.34
  A 0.70 0.70 0.0 0 1 35.05 132.41
  Z"
/>
<path fill="#000000" d="
  M 82.12 193.67
  C 68.51 202.73 51.67 193.66 50.49 177.96
  C 49.71 167.49 56.86 157.70 67.34 156.05
  Q 76.08 154.66 82.30 159.37
  A 0.44 0.44 0.0 0 0 83.01 159.02
  L 82.94 145.06
  A 1.06 1.06 0.0 0 1 83.99 144.00
  L 91.03 143.95
  Q 92.12 143.94 92.12 145.03
  L 92.17 195.18
  Q 92.17 196.28 91.07 196.27
  L 84.29 196.22
  Q 83.12 196.22 83.03 195.04
  L 82.96 194.08
  Q 82.89 193.16 82.12 193.67
  Z
  M 71.5925 188.1289
  A 11.64 11.34 89.2 0 0 82.7689 176.3317
  A 11.64 11.34 89.2 0 0 71.2675 164.8511
  A 11.64 11.34 89.2 0 0 60.0911 176.6483
  A 11.64 11.34 89.2 0 0 71.5925 188.1289
  Z"
/>
<rect fill="#000000" x="96.51" y="144.02" width="9.00" height="8.72" rx="0.94"/>
<path fill="#000000" d="
  M 140.05 193.97
  A 0.60 0.60 0.0 0 0 139.09 193.60
  C 135.53 196.35 131.40 197.44 126.95 197.22
  C 115.37 196.68 107.33 187.11 107.70 175.65
  C 108.23 159.24 126.13 150.11 139.67 159.31
  A 0.35 0.34 17.3 0 0 140.21 159.03
  L 140.18 144.79
  Q 140.18 144.00 140.96 144.00
  L 148.49 143.96
  Q 149.28 143.96 149.28 144.74
  L 149.27 195.74
  A 0.51 0.51 0.0 0 1 148.76 196.25
  L 141.23 196.25
  Q 140.46 196.25 140.32 195.48
  L 140.05 193.97
  Z
  M 128.7231 188.1282
  A 11.64 11.31 89.0 0 0 139.8283 176.2926
  A 11.64 11.31 89.0 0 0 128.3169 164.8518
  A 11.64 11.31 89.0 0 0 117.2117 176.6874
  A 11.64 11.31 89.0 0 0 128.7231 188.1282
  Z"
/>
<path fill="#000000" d="
  M 183.39 160.00
  L 183.29 157.75
  A 0.98 0.97 -1.7 0 1 184.25 156.74
  L 191.45 156.66
  Q 192.49 156.65 192.49 157.70
  L 192.49 195.52
  A 0.76 0.76 0.0 0 1 191.73 196.28
  L 184.25 196.24
  Q 183.63 196.24 183.59 195.61
  Q 183.52 194.49 183.61 193.26
  Q 183.65 192.68 183.21 192.36
  A 0.46 0.46 0.0 0 0 182.56 192.48
  C 178.78 198.32 168.84 197.80 163.48 195.65
  C 154.09 191.89 149.71 182.88 151.06 173.02
  C 152.56 162.01 161.82 154.93 172.91 155.75
  Q 179.14 156.21 182.43 160.36
  A 0.54 0.54 0.0 0 0 183.39 160.00
  Z
  M 172.9597 187.6274
  A 11.43 11.13 81.6 0 0 182.3006 174.6941
  A 11.43 11.13 81.6 0 0 169.6203 165.0126
  A 11.43 11.13 81.6 0 0 160.2794 177.9459
  A 11.43 11.13 81.6 0 0 172.9597 187.6274
  Z"
/>
<path fill="#000000" d="
  M 38.34 160.41
  A 0.52 0.52 0.0 0 0 39.20 159.99
  L 39.08 157.42
  Q 39.05 156.75 39.71 156.75
  L 47.47 156.68
  Q 48.06 156.68 48.06 157.27
  L 48.03 195.50
  Q 48.03 196.29 47.25 196.28
  L 39.91 196.23
  Q 39.10 196.23 39.13 195.41
  L 39.22 193.29
  Q 39.29 191.56 38.14 192.86
  C 35.70 195.65 32.72 196.75 29.15 197.01
  Q 16.28 197.95 9.56 187.66
  C 5.97 182.16 5.32 173.76 8.06 167.95
  Q 14.79 153.71 30.95 156.08
  C 34.36 156.58 35.96 158.28 38.34 160.41
  Z
  M 28.3642 187.6747
  A 11.44 11.10 83.0 0 0 37.9873 174.9673
  A 11.44 11.10 83.0 0 0 25.5758 164.9653
  A 11.44 11.10 83.0 0 0 15.9527 177.6727
  A 11.44 11.10 83.0 0 0 28.3642 187.6747
  Z"
/>
<path fill="#000000" d="
  M 214.49 189.25
  C 217.77 188.65 220.24 184.79 217.15 182.25
  C 214.50 180.08 209.58 178.91 206.41 178.05
  C 200.54 176.44 195.73 171.13 197.67 164.80
  C 200.17 156.66 210.76 154.80 218.25 156.16
  C 223.83 157.16 227.84 160.74 228.83 166.46
  Q 229.01 167.46 228.00 167.45
  L 218.77 167.40
  A 1.12 1.12 0.0 0 1 217.68 166.46
  C 217.05 162.54 212.12 162.51 209.49 164.18
  C 207.09 165.70 208.09 168.32 210.21 169.41
  C 215.54 172.17 221.51 172.82 226.36 176.54
  C 230.22 179.50 230.69 185.53 228.55 189.45
  C 221.96 201.48 195.74 199.79 194.99 183.75
  A 0.70 0.69 -1.5 0 1 195.69 183.02
  L 205.30 183.04
  Q 205.85 183.04 205.95 183.58
  Q 207.24 190.57 214.49 189.25
  Z"
/>
<rect fill="#000000" x="96.50" y="156.69" width="9.00" height="39.56" rx="0.82"/>
</svg>
