<?xml version="1.0" encoding="UTF-8" standalone="no"?>
<!DOCTYPE svg PUBLIC "-//W3C//DTD SVG 1.1//EN" "http://www.w3.org/Graphics/SVG/1.1/DTD/svg11.dtd">
<svg xmlns="http://www.w3.org/2000/svg" version="1.1" viewBox="0.00 0.00 236.00 236.00">
<path fill="#000000" d="
  M 137.94 96.57
  Q 137.91 96.22 137.67 95.95
  Q 114.89 70.88 92.11 45.76
  Q 91.42 45.00 92.45 45.00
  L 130.46 44.98
  A 2.55 2.55 0.0 0 1 132.35 45.82
  L 177.68 95.81
  A 1.22 1.21 45.2 0 1 177.68 97.44
  L 132.31 147.45
  A 2.25 2.23 -68.7 0 1 130.65 148.19
  L 92.43 148.18
  A 0.42 0.42 0.0 0 1 92.12 147.47
  L 137.72 97.21
  A 0.85 0.84 64.3 0 0 137.94 96.57
  Z"
/>
<path fill="#000000" d="
  M 91.36 89.85
  L 111.35 96.10
  A 0.51 0.51 0.0 0 1 111.35 97.08
  L 91.36 103.33
  A 0.51 0.51 0.0 0 0 91.01 103.82
  L 91.24 124.77
  A 0.51 0.51 0.0 0 1 90.31 125.07
  L 78.19 107.99
  A 0.51 0.51 0.0 0 0 77.61 107.80
  L 57.76 114.49
  A 0.51 0.51 0.0 0 1 57.19 113.70
  L 69.68 96.89
  A 0.51 0.51 0.0 0 0 69.68 96.29
  L 57.19 79.48
  A 0.51 0.51 0.0 0 1 57.76 78.69
  L 77.61 85.38
  A 0.51 0.51 0.0 0 0 78.19 85.19
  L 90.31 68.11
  A 0.51 0.51 0.0 0 1 91.24 68.41
  L 91.01 89.36
  A 0.51 0.51 0.0 0 0 91.36 89.85
  Z"
/>
<path fill="#000000" d="
  M 19.65 171.94
  C 14.45 177.29 22.90 185.86 29.12 179.74
  Q 29.77 179.10 30.53 179.61
  L 34.67 182.41
  A 0.95 0.95 0.0 0 1 34.81 183.87
  Q 27.67 190.91 19.04 187.35
  C 11.35 184.17 8.52 174.89 13.89 168.13
  C 19.30 161.33 28.91 161.53 34.83 167.78
  A 0.97 0.97 0.0 0 1 34.69 169.24
  L 30.89 171.94
  A 1.41 1.41 0.0 0 1 29.14 171.85
  Q 24.08 167.38 19.65 171.94
  Z"
/>
<path fill="#000000" d="
  M 63.77 175.81
  A 12.82 12.82 0.0 0 1 50.95 188.63
  A 12.82 12.82 0.0 0 1 38.13 175.81
  A 12.82 12.82 0.0 0 1 50.95 162.99
  A 12.82 12.82 0.0 0 1 63.77 175.81
  Z
  M 56.99 175.82
  A 6.05 6.05 0.0 0 0 50.94 169.77
  A 6.05 6.05 0.0 0 0 44.89 175.82
  A 6.05 6.05 0.0 0 0 50.94 181.87
  A 6.05 6.05 0.0 0 0 56.99 175.82
  Z"
/>
<path fill="#000000" d="
  M 192.57 180.55
  Q 192.02 179.80 191.09 179.55
  C 185.61 178.09 177.72 177.10 179.43 169.18
  Q 180.35 164.89 184.86 163.63
  Q 191.01 161.89 197.47 165.36
  Q 198.88 166.11 197.88 167.35
  L 195.84 169.88
  Q 194.97 170.96 193.76 170.28
  Q 190.84 168.62 187.40 168.90
  A 1.34 1.33 -2.3 0 0 186.17 170.23
  Q 186.17 171.63 187.68 171.98
  Q 191.59 172.89 195.02 174.16
  C 202.26 176.85 200.98 186.11 194.02 187.94
  Q 186.42 189.95 178.96 185.56
  Q 177.66 184.80 178.61 183.63
  L 180.88 180.87
  Q 181.72 179.85 182.79 180.63
  Q 186.92 183.65 191.73 182.70
  A 1.37 1.37 0.0 0 0 192.57 180.55
  Z"
/>
<path fill="#000000" d="
  M 75.16 176.19
  L 75.23 186.74
  Q 75.24 187.72 74.26 187.73
  L 69.51 187.76
  Q 68.77 187.76 68.77 187.01
  L 68.78 164.27
  A 0.50 0.50 0.0 0 1 69.26 163.77
  Q 71.73 163.69 74.27 163.74
  Q 75.29 163.76 75.96 164.60
  Q 80.61 170.40 84.40 175.71
  Q 85.82 177.70 85.80 175.26
  L 85.72 164.52
  Q 85.71 163.75 86.48 163.75
  L 91.51 163.74
  Q 92.08 163.74 92.08 164.31
  L 92.08 187.09
  A 0.67 0.67 0.0 0 1 91.41 187.76
  L 85.89 187.74
  Q 84.78 187.74 84.13 186.83
  L 76.29 175.82
  Q 75.14 174.21 75.16 176.19
  Z"
/>
<path fill="#000000" d="
  M 110.06 180.84
  Q 110.39 180.74 110.49 180.40
  Q 112.80 172.61 115.28 164.63
  Q 115.56 163.73 116.49 163.73
  L 121.99 163.74
  Q 122.92 163.74 122.63 164.62
  L 115.43 186.80
  A 1.33 1.32 -80.9 0 1 114.17 187.72
  L 105.53 187.74
  A 1.21 1.20 -8.9 0 1 104.38 186.91
  L 97.08 164.39
  Q 96.88 163.75 97.54 163.75
  L 103.51 163.73
  A 0.96 0.95 -8.7 0 1 104.42 164.39
  L 109.44 180.51
  A 0.50 0.49 -16.4 0 0 110.06 180.84
  Z"
/>
<path fill="#000000" d="
  M 134.81 170.08
  A 1.24 1.24 0.0 0 0 133.81 172.07
  Q 134.36 172.79 135.29 172.77
  Q 140.07 172.69 144.18 172.72
  Q 145.40 172.72 145.41 173.95
  L 145.42 177.28
  Q 145.42 178.49 144.22 178.49
  L 134.57 178.48
  A 1.01 1.01 0.0 0 0 133.57 179.62
  L 133.63 180.06
  Q 133.78 181.25 134.98 181.26
  L 145.58 181.31
  A 1.02 1.02 0.0 0 1 146.59 182.33
  L 146.59 186.70
  Q 146.59 187.73 145.55 187.73
  L 128.35 187.72
  Q 127.48 187.72 127.48 186.85
  L 127.50 164.49
  Q 127.50 163.74 128.26 163.74
  L 145.68 163.73
  Q 146.64 163.73 146.62 164.68
  L 146.55 169.18
  A 0.97 0.96 0.6 0 1 145.57 170.13
  L 134.81 170.08
  Z"
/>
<path fill="#000000" d="
  M 159.60 180.04
  L 159.68 186.77
  Q 159.70 187.74 158.73 187.74
  L 154.24 187.73
  Q 153.25 187.72 153.25 186.74
  L 153.25 164.44
  A 0.68 0.68 0.0 0 1 153.92 163.76
  Q 159.76 163.69 165.66 163.77
  C 173.08 163.87 176.15 172.56 170.40 177.38
  A 1.21 1.21 0.0 0 0 170.10 178.86
  L 174.21 186.89
  Q 174.65 187.76 173.68 187.76
  L 168.10 187.74
  A 1.29 1.29 0.0 0 1 166.94 186.98
  Q 165.37 183.48 163.84 180.48
  Q 162.77 178.38 160.28 179.12
  A 0.94 0.94 0.0 0 0 159.60 180.04
  Z
  M 166.6995 171.3349
  A 1.26 1.26 0.0 0 0 165.4307 170.0837
  L 160.7508 170.1164
  A 1.26 1.26 0.0 0 0 159.4997 171.3851
  L 159.5005 171.5051
  A 1.26 1.26 0.0 0 0 160.7693 172.7563
  L 165.4492 172.7236
  A 1.26 1.26 0.0 0 0 166.7003 171.4549
  L 166.6995 171.3349
  Z"
/>
<path fill="#000000" d="
  M 211.40 170.55
  Q 210.49 172.79 212.94 172.75
  Q 217.20 172.68 221.78 172.75
  Q 223.01 172.77 223.01 174.00
  L 223.01 177.10
  A 1.37 1.36 90.0 0 1 221.65 178.47
  L 212.58 178.50
  Q 211.15 178.50 211.22 179.92
  L 211.24 180.28
  A 1.04 1.03 -1.1 0 0 212.28 181.27
  L 223.22 181.30
  Q 224.15 181.30 224.14 182.22
  L 224.07 186.96
  Q 224.06 187.72 223.29 187.72
  L 205.59 187.72
  A 0.64 0.63 -0.0 0 1 204.95 187.09
  L 204.97 164.14
  A 0.40 0.39 90.0 0 1 205.36 163.74
  L 223.26 163.74
  Q 224.04 163.74 224.05 164.51
  L 224.07 169.43
  A 0.80 0.80 0.0 0 1 223.23 170.24
  Q 211.74 169.72 211.40 170.55
  Z"
/>
</svg>
