<?xml version="1.0" encoding="UTF-8"?>
<svg xmlns="http://www.w3.org/2000/svg" xmlns:xlink="http://www.w3.org/1999/xlink" width="50px" height="30px" viewBox="0 0 50 30" version="1.1">
<g id="surface1">
<path style="fill:none;stroke-width:2;stroke-linecap:butt;stroke-linejoin:miter;stroke:rgb(94.901961%,71.372549%,67.058824%);stroke-opacity:1;stroke-miterlimit:4;" d="M 90.510156 63.089193 L 83.652344 61.616536 C 83.540625 61.599609 83.4375 61.616536 83.342969 61.684245 C 83.257031 61.74349 83.205469 61.845052 83.188281 61.946615 L 83.153906 62.31901 C 83.119531 62.589844 83.274219 62.852214 83.532031 62.936849 C 86.11875 63.876302 84.46875 66.923177 83.721094 68.38737 C 82.95625 69.89388 82.517969 71.535807 82.397656 73.321615 C 82.371875 73.69401 82.535156 73.947917 82.878906 74.083333 C 83.9875 74.50651 85.053125 74.514974 86.092969 74.108724 C 86.410938 73.990234 86.685938 73.761719 86.857813 73.457031 C 87.820312 71.882812 89.160938 70.960286 90.871094 70.68099 C 95.288281 69.944661 100.126563 69.013672 105.377344 67.879557 C 106.210938 67.701823 106.803906 67.270182 107.139063 66.593099 C 107.319531 66.229167 107.207813 66.017578 106.8125 65.958333 C 103.125781 65.42513 99.439063 64.841146 95.769531 64.197917 C 93.234375 63.749349 92.598438 63.503906 93.853125 63.453125 " transform="matrix(0.454545,0,0,0.461538,-3.863636,-11.192308)"/>
<path style="fill:none;stroke-width:2;stroke-linecap:butt;stroke-linejoin:miter;stroke:rgb(94.901961%,71.372549%,67.058824%);stroke-opacity:1;stroke-miterlimit:4;" d="M 37.2375 35.328776 C 29.571875 39.213542 21.760156 42.869792 13.79375 46.297526 C 13.3125 46.500651 13.063281 46.85612 13.028906 47.380859 L 12.676562 53.169922 C 12.650781 53.660807 12.874219 53.999349 13.329688 54.16862 C 18.2625 56.047526 23.427344 56.961589 28.832813 56.910807 C 29.176563 56.910807 29.434375 56.758464 29.597656 56.46224 C 31.307813 53.415365 33.671094 51.147135 36.6875 49.649089 C 40.133594 47.947917 43.502344 46.297526 46.776563 44.689453 C 48.486719 43.860026 49.68125 42.725911 50.36875 41.278646 C 50.50625 40.990885 50.549219 40.686198 50.489063 40.373047 C 49.775781 36.649089 48.916406 31.088542 43.528125 32.738932 C 41.551563 33.348307 39.454688 34.211589 37.2375 35.328776 " transform="matrix(0.454545,0,0,0.461538,-3.863636,-11.192308)"/>
<path style="fill:none;stroke-width:2;stroke-linecap:butt;stroke-linejoin:miter;stroke:rgb(94.901961%,71.372549%,67.058824%);stroke-opacity:1;stroke-miterlimit:4;" d="M 66.877344 63.893229 C 63.783594 63.283854 60.423438 59.170573 57.991406 57.283203 C 55.000781 54.964193 51.013281 54.921875 47.4125 54.71875 C 45.942969 54.642578 45.040625 53.863932 44.688281 52.391276 C 44.636719 52.145833 44.464844 51.951172 44.241406 51.849609 C 44.009375 51.75651 43.751563 51.773438 43.536719 51.900391 C 39.033594 54.591797 33.714062 58.273438 28.248438 57.917969 C 23.702344 57.630208 18.709375 56.656901 13.278125 55.023438 C 12.14375 54.676432 11.567969 55.099609 11.567969 56.276042 L 11.567969 58.967448 C 11.559375 59.915365 12.160937 60.753255 13.063281 61.066406 C 17.549219 62.598307 22.215625 64.113281 27.053906 65.619792 C 28.807031 66.169922 30.053125 67.160156 30.783594 68.598958 C 32.029688 71.08724 33.310156 73.719401 34.616406 76.503906 C 34.874219 77.037109 35.286719 77.316406 35.871094 77.341797 C 42.25625 77.671875 48.641406 77.451823 54.983594 78.357422 C 58.06875 78.80599 61.239844 78.94987 64.514062 78.780599 C 64.703125 78.763672 64.875 78.653646 64.969531 78.475911 C 67.066406 74.388021 68.149219 70.01237 68.217969 65.357422 C 68.226562 65.001953 68.10625 64.688802 67.857031 64.426432 C 67.590625 64.147135 67.264062 63.960938 66.877344 63.893229 " transform="matrix(0.454545,0,0,0.461538,-3.863636,-11.192308)"/>
<path style="fill:none;stroke-width:2;stroke-linecap:butt;stroke-linejoin:miter;stroke:rgb(94.901961%,71.372549%,67.058824%);stroke-opacity:1;stroke-miterlimit:4;" d="M 74.732031 86.321615 C 87.089844 85.517578 97.290625 84.942057 108.213281 81.861328 C 109.983594 81.361979 111.607813 80.684896 113.077344 79.838542 C 114.2375 79.178385 115.036719 78.103516 115.483594 76.622396 C 115.569531 76.326172 115.595313 76.029948 115.560938 75.733724 C 115.397656 74.294922 114.684375 73.922526 113.421094 74.616536 C 110.310156 76.334635 106.838281 77.451823 103.014063 77.968099 C 88.842969 79.90625 74.84375 81.141927 61.214063 79.610026 C 56.891406 79.119141 52.740625 79.389974 48.478125 78.80599 C 42.711719 78.027344 36.807812 78.450521 31.007031 77.925781 C 27.010938 77.561849 23.040625 77.341797 19.113281 77.274089 C 16.982031 77.240234 14.850781 76.817057 12.753906 76.503906 C 12.264062 76.427734 11.997656 76.639323 11.946094 77.130208 C 11.447656 82.402995 11.533594 86.770182 18.288281 86.719401 C 30.955469 86.626302 43.235938 86.651693 55.138281 86.804036 C 61.892969 86.888672 68.424219 86.727865 74.732031 86.321615 " transform="matrix(0.454545,0,0,0.461538,-3.863636,-11.192308)"/>
<path style="fill:none;stroke-width:2;stroke-linecap:butt;stroke-linejoin:miter;stroke:rgb(94.901961%,71.372549%,67.058824%);stroke-opacity:1;stroke-miterlimit:4;" d="M 46.286719 35.938151 C 46.286719 35.184896 45.676563 34.567057 44.920313 34.567057 C 44.164062 34.567057 43.553906 35.184896 43.553906 35.938151 C 43.553906 36.69987 44.164062 37.309245 44.920313 37.309245 C 45.676563 37.309245 46.286719 36.69987 46.286719 35.938151 " transform="matrix(0.454545,0,0,0.461538,-3.863636,-11.192308)"/>
<path style="fill:none;stroke-width:2;stroke-linecap:butt;stroke-linejoin:miter;stroke:rgb(94.901961%,71.372549%,67.058824%);stroke-opacity:1;stroke-miterlimit:4;" d="M 48.203125 40.677734 C 48.203125 39.958333 47.61875 39.382812 46.896875 39.382812 C 46.183594 39.382812 45.599219 39.958333 45.599219 40.677734 C 45.599219 41.397135 46.183594 41.98112 46.896875 41.98112 C 47.61875 41.98112 48.203125 41.397135 48.203125 40.677734 " transform="matrix(0.454545,0,0,0.461538,-3.863636,-11.192308)"/>
<path style=" stroke:none;fill-rule:nonzero;fill:rgb(90.196078%,45.098039%,38.039216%);fill-opacity:1;" d="M 37.277344 17.925781 L 34.160156 17.246094 C 34.109375 17.238281 34.0625 17.246094 34.019531 17.277344 C 33.980469 17.304688 33.957031 17.351562 33.949219 17.398438 L 33.933594 17.570312 C 33.917969 17.695312 33.988281 17.816406 34.105469 17.855469 C 35.28125 18.289062 34.53125 19.695312 34.191406 20.371094 C 33.84375 21.066406 33.644531 21.824219 33.589844 22.648438 C 33.578125 22.820312 33.652344 22.9375 33.808594 23 C 34.3125 23.195312 34.796875 23.199219 35.269531 23.011719 C 35.414062 22.957031 35.539062 22.851562 35.617188 22.710938 C 36.054688 21.984375 36.664062 21.558594 37.441406 21.429688 C 39.449219 21.089844 41.648438 20.660156 44.035156 20.136719 C 44.414062 20.054688 44.683594 19.855469 44.835938 19.542969 C 44.917969 19.375 44.867188 19.277344 44.6875 19.25 C 43.011719 19.003906 41.335938 18.734375 39.667969 18.4375 C 38.515625 18.230469 38.226562 18.117188 38.796875 18.09375 C 41.203125 18.367188 43.082031 18.644531 44.433594 18.925781 C 46.035156 19.265625 47.667969 21.054688 48.566406 22.304688 C 53.113281 28.625 30.339844 29.21875 28.296875 29.210938 C 21.757812 29.1875 15.28125 29.253906 8.863281 29.414062 C 6.035156 29.484375 3.863281 29.304688 2.339844 28.871094 C 1.480469 28.625 1.050781 27.917969 1.050781 26.753906 C 1.050781 22.820312 1.015625 18.914062 0.949219 15.035156 C 0.933594 13.863281 1.632812 13.078125 1.636719 11.890625 C 1.640625 11.277344 1.726562 10.6875 1.894531 10.121094 C 2.210938 9.0625 2.445312 7.875 2.605469 6.5625 C 2.671875 6 2.941406 5.519531 3.523438 5.390625 C 8.3125 4.339844 12.738281 2.742188 16.800781 0.601562 C 16.9375 0.523438 17.097656 0.496094 17.253906 0.511719 C 17.925781 0.59375 18.414062 0.972656 18.714844 1.636719 C 19.394531 3.148438 20.078125 4.71875 20.761719 6.347656 C 21.242188 7.476562 21.910156 8.160156 21.996094 9.507812 C 22.082031 10.910156 24.027344 11.183594 24.949219 11.996094 C 25.863281 12.796875 26.890625 13.332031 28.027344 13.597656 C 28.835938 13.78125 29.585938 14.078125 30.277344 14.484375 C 31.320312 15.09375 32.421875 15.546875 33.582031 15.835938 C 33.9375 15.925781 34.171875 16.144531 34.289062 16.496094 C 34.4375 16.925781 34.789062 17.195312 35.34375 17.296875 C 36.035156 17.425781 36.675781 17.632812 37.277344 17.925781 Z M 13.0625 5.113281 C 9.578125 6.90625 6.027344 8.59375 2.40625 10.175781 C 2.1875 10.269531 2.074219 10.433594 2.058594 10.675781 L 1.898438 13.347656 C 1.886719 13.574219 1.988281 13.730469 2.195312 13.808594 C 4.4375 14.675781 6.785156 15.097656 9.242188 15.074219 C 9.398438 15.074219 9.515625 15.003906 9.589844 14.867188 C 10.367188 13.460938 11.441406 12.414062 12.8125 11.722656 C 14.378906 10.9375 15.910156 10.175781 17.398438 9.433594 C 18.175781 9.050781 18.71875 8.527344 19.03125 7.859375 C 19.09375 7.726562 19.113281 7.585938 19.085938 7.441406 C 18.761719 5.722656 18.371094 3.15625 15.921875 3.917969 C 15.023438 4.199219 14.070312 4.597656 13.0625 5.113281 Z M 26.535156 18.296875 C 25.128906 18.015625 23.601562 16.117188 22.496094 15.246094 C 21.136719 14.175781 19.324219 14.15625 17.6875 14.0625 C 17.019531 14.027344 16.609375 13.667969 16.449219 12.988281 C 16.425781 12.875 16.347656 12.785156 16.246094 12.738281 C 16.140625 12.695312 16.023438 12.703125 15.925781 12.761719 C 13.878906 14.003906 11.460938 15.703125 8.976562 15.539062 C 6.910156 15.40625 4.640625 14.957031 2.171875 14.203125 C 1.65625 14.042969 1.394531 14.238281 1.394531 14.78125 L 1.394531 16.023438 C 1.390625 16.460938 1.664062 16.847656 2.074219 16.992188 C 4.113281 17.699219 6.234375 18.398438 8.433594 19.09375 C 9.230469 19.347656 9.796875 19.804688 10.128906 20.46875 C 10.695312 21.617188 11.277344 22.832031 11.871094 24.117188 C 11.988281 24.363281 12.175781 24.492188 12.441406 24.503906 C 15.34375 24.65625 18.246094 24.554688 21.128906 24.972656 C 22.53125 25.179688 23.972656 25.246094 25.460938 25.167969 C 25.546875 25.160156 25.625 25.109375 25.667969 25.027344 C 26.621094 23.140625 27.113281 21.121094 27.144531 18.972656 C 27.148438 18.808594 27.09375 18.664062 26.980469 18.542969 C 26.859375 18.414062 26.710938 18.328125 26.535156 18.296875 Z M 30.105469 28.648438 C 35.722656 28.277344 40.359375 28.011719 45.324219 26.589844 C 46.128906 26.359375 46.867188 26.046875 47.535156 25.65625 C 48.0625 25.351562 48.425781 24.855469 48.628906 24.171875 C 48.667969 24.035156 48.679688 23.898438 48.664062 23.761719 C 48.589844 23.097656 48.265625 22.925781 47.691406 23.246094 C 46.277344 24.039062 44.699219 24.554688 42.960938 24.792969 C 36.519531 25.6875 30.15625 26.257812 23.960938 25.550781 C 21.996094 25.324219 20.109375 25.449219 18.171875 25.179688 C 15.550781 24.820312 12.867188 25.015625 10.230469 24.773438 C 8.414062 24.605469 6.609375 24.503906 4.824219 24.472656 C 3.855469 24.457031 2.886719 24.261719 1.933594 24.117188 C 1.710938 24.082031 1.589844 24.179688 1.566406 24.40625 C 1.339844 26.839844 1.378906 28.855469 4.449219 28.832031 C 10.207031 28.789062 15.789062 28.800781 21.199219 28.871094 C 24.269531 28.910156 27.238281 28.835938 30.105469 28.648438 Z M 30.105469 28.648438 "/>
<path style=" stroke:none;fill-rule:nonzero;fill:rgb(99.215686%,97.254902%,96.078431%);fill-opacity:1;" d="M 13.0625 5.113281 C 14.070312 4.597656 15.023438 4.199219 15.921875 3.917969 C 18.371094 3.15625 18.761719 5.722656 19.085938 7.441406 C 19.113281 7.585938 19.09375 7.726562 19.03125 7.859375 C 18.71875 8.527344 18.175781 9.050781 17.398438 9.433594 C 15.910156 10.175781 14.378906 10.9375 12.8125 11.722656 C 11.441406 12.414062 10.367188 13.460938 9.589844 14.867188 C 9.515625 15.003906 9.398438 15.074219 9.242188 15.074219 C 6.785156 15.097656 4.4375 14.675781 2.195312 13.808594 C 1.988281 13.730469 1.886719 13.574219 1.898438 13.347656 L 2.058594 10.675781 C 2.074219 10.433594 2.1875 10.269531 2.40625 10.175781 C 6.027344 8.59375 9.578125 6.90625 13.0625 5.113281 Z M 17.175781 5.394531 C 17.175781 5.046875 16.898438 4.761719 16.554688 4.761719 C 16.210938 4.761719 15.933594 5.046875 15.933594 5.394531 C 15.933594 5.746094 16.210938 6.027344 16.554688 6.027344 C 16.898438 6.027344 17.175781 5.746094 17.175781 5.394531 Z M 18.046875 7.582031 C 18.046875 7.25 17.78125 6.984375 17.453125 6.984375 C 17.128906 6.984375 16.863281 7.25 16.863281 7.582031 C 16.863281 7.914062 17.128906 8.183594 17.453125 8.183594 C 17.78125 8.183594 18.046875 7.914062 18.046875 7.582031 Z M 18.046875 7.582031 "/>
<path style=" stroke:none;fill-rule:nonzero;fill:rgb(90.196078%,45.098039%,38.039216%);fill-opacity:1;" d="M 17.175781 5.394531 C 17.175781 5.746094 16.898438 6.027344 16.554688 6.027344 C 16.210938 6.027344 15.933594 5.746094 15.933594 5.394531 C 15.933594 5.046875 16.210938 4.761719 16.554688 4.761719 C 16.898438 4.761719 17.175781 5.046875 17.175781 5.394531 Z M 17.175781 5.394531 "/>
<path style=" stroke:none;fill-rule:nonzero;fill:rgb(90.196078%,45.098039%,38.039216%);fill-opacity:1;" d="M 18.046875 7.582031 C 18.046875 7.914062 17.78125 8.183594 17.453125 8.183594 C 17.128906 8.183594 16.863281 7.914062 16.863281 7.582031 C 16.863281 7.25 17.128906 6.984375 17.453125 6.984375 C 17.78125 6.984375 18.046875 7.25 18.046875 7.582031 Z M 18.046875 7.582031 "/>
<path style=" stroke:none;fill-rule:nonzero;fill:rgb(99.215686%,97.254902%,96.078431%);fill-opacity:1;" d="M 26.535156 18.296875 C 26.710938 18.328125 26.859375 18.414062 26.980469 18.542969 C 27.09375 18.664062 27.148438 18.808594 27.144531 18.972656 C 27.113281 21.121094 26.621094 23.140625 25.667969 25.027344 C 25.625 25.109375 25.546875 25.160156 25.460938 25.167969 C 23.972656 25.246094 22.53125 25.179688 21.128906 24.972656 C 18.246094 24.554688 15.34375 24.65625 12.441406 24.503906 C 12.175781 24.492188 11.988281 24.363281 11.871094 24.117188 C 11.277344 22.832031 10.695312 21.617188 10.128906 20.46875 C 9.796875 19.804688 9.230469 19.347656 8.433594 19.09375 C 6.234375 18.398438 4.113281 17.699219 2.074219 16.992188 C 1.664062 16.847656 1.390625 16.460938 1.394531 16.023438 L 1.394531 14.78125 C 1.394531 14.238281 1.65625 14.042969 2.171875 14.203125 C 4.640625 14.957031 6.910156 15.40625 8.976562 15.539062 C 11.460938 15.703125 13.878906 14.003906 15.925781 12.761719 C 16.023438 12.703125 16.140625 12.695312 16.246094 12.738281 C 16.347656 12.785156 16.425781 12.875 16.449219 12.988281 C 16.609375 13.667969 17.019531 14.027344 17.6875 14.0625 C 19.324219 14.15625 21.136719 14.175781 22.496094 15.246094 C 23.601562 16.117188 25.128906 18.015625 26.535156 18.296875 Z M 26.535156 18.296875 "/>
<path style=" stroke:none;fill-rule:nonzero;fill:rgb(99.215686%,97.254902%,96.078431%);fill-opacity:1;" d="M 37.277344 17.925781 L 38.796875 18.09375 C 38.226562 18.117188 38.515625 18.230469 39.667969 18.4375 C 41.335938 18.734375 43.011719 19.003906 44.6875 19.25 C 44.867188 19.277344 44.917969 19.375 44.835938 19.542969 C 44.683594 19.855469 44.414062 20.054688 44.035156 20.136719 C 41.648438 20.660156 39.449219 21.089844 37.441406 21.429688 C 36.664062 21.558594 36.054688 21.984375 35.617188 22.710938 C 35.539062 22.851562 35.414062 22.957031 35.269531 23.011719 C 34.796875 23.199219 34.3125 23.195312 33.808594 23 C 33.652344 22.9375 33.578125 22.820312 33.589844 22.648438 C 33.644531 21.824219 33.84375 21.066406 34.191406 20.371094 C 34.53125 19.695312 35.28125 18.289062 34.105469 17.855469 C 33.988281 17.816406 33.917969 17.695312 33.933594 17.570312 L 33.949219 17.398438 C 33.957031 17.351562 33.980469 17.304688 34.019531 17.277344 C 34.0625 17.246094 34.109375 17.238281 34.160156 17.246094 Z M 37.277344 17.925781 "/>
<path style=" stroke:none;fill-rule:nonzero;fill:rgb(99.215686%,97.254902%,96.078431%);fill-opacity:1;" d="M 45.324219 26.589844 C 40.359375 28.011719 35.722656 28.277344 30.105469 28.648438 C 27.238281 28.835938 24.269531 28.910156 21.199219 28.871094 C 15.789062 28.800781 10.207031 28.789062 4.449219 28.832031 C 1.378906 28.855469 1.339844 26.839844 1.566406 24.40625 C 1.589844 24.179688 1.710938 24.082031 1.933594 24.117188 C 2.886719 24.261719 3.855469 24.457031 4.824219 24.472656 C 6.609375 24.503906 8.414062 24.605469 10.230469 24.773438 C 12.867188 25.015625 15.550781 24.820312 18.171875 25.179688 C 20.109375 25.449219 21.996094 25.324219 23.960938 25.550781 C 30.15625 26.257812 36.519531 25.6875 42.960938 24.792969 C 44.699219 24.554688 46.277344 24.039062 47.691406 23.246094 C 48.265625 22.925781 48.589844 23.097656 48.664062 23.761719 C 48.679688 23.898438 48.667969 24.035156 48.628906 24.171875 C 48.425781 24.855469 48.0625 25.351562 47.535156 25.65625 C 46.867188 26.046875 46.128906 26.359375 45.324219 26.589844 Z M 45.324219 26.589844 "/>
</g>
</svg>
