<?xml version="1.0" encoding="UTF-8" standalone="no"?>
<!DOCTYPE svg PUBLIC "-//W3C//DTD SVG 1.1//EN" "http://www.w3.org/Graphics/SVG/1.1/DTD/svg11.dtd">
<svg xmlns="http://www.w3.org/2000/svg" version="1.1" viewBox="0.00 0.00 658.00 142.00">
<path stroke="#e4907d" stroke-width="2.00" fill="none" stroke-linecap="butt" vector-effect="non-scaling-stroke" d="
  M 192.83 55.40
  Q 183.65 46.62 191.02 32.87"
/>
<path fill="#e77562" d="
  M 192.83 55.40
  Q 183.65 46.62 191.02 32.87
  Q 208.98 25.40 223.27 36.41
  Q 228.18 40.20 230.53 44.77
  Q 233.13 49.83 233.39 55.56
  Q 233.43 56.23 232.75 56.23
  L 216.94 56.24
  Q 216.31 56.24 216.11 55.63
  Q 213.33 47.07 203.05 47.47
  Q 199.32 47.61 196.19 48.59
  Q 191.96 49.92 192.83 55.40
  Z"
/>
<path fill="#e77562" d="
  M 92.71 59.95
  Q 96.90 61.25 99.94 64.18
  Q 102.68 66.82 106.52 67.55
  C 109.34 68.09 111.72 68.94 114.14 70.54
  Q 117.90 73.01 122.20 73.80
  C 123.60 74.06 125.03 75.13 125.31 76.60
  Q 125.51 77.69 126.58 77.89
  C 130.54 78.63 134.24 80.21 138.33 80.52
  Q 145.15 81.04 153.24 82.72
  Q 155.57 83.21 157.29 84.52
  Q 159.63 86.31 161.33 88.30
  Q 162.70 89.89 164.18 91.42
  C 166.09 93.38 166.68 96.78 165.40 99.02
  C 163.07 103.12 155.92 105.52 151.42 106.39
  Q 149.34 106.79 147.37 107.38
  C 143.72 108.48 139.66 108.68 135.90 109.35
  Q 132.23 110.00 128.73 110.25
  C 119.96 110.87 110.97 111.66 102.17 111.37
  C 86.05 110.84 71.33 111.37 55.75 111.81
  Q 45.94 112.09 37.33 110.71
  Q 32.82 109.99 32.59 105.08
  Q 32.11 94.78 32.38 82.97
  C 32.48 78.69 32.04 74.32 32.28 69.95
  C 32.40 67.84 33.83 67.18 33.95 65.30
  Q 34.15 62.24 34.45 59.22
  C 34.58 57.86 35.66 57.34 35.71 56.05
  Q 35.88 51.23 37.34 46.64
  A 2.13 2.12 1.9 0 1 38.88 45.21
  C 42.65 44.33 46.32 43.74 50.08 42.43
  C 55.42 40.56 61.07 38.97 66.05 36.74
  Q 71.09 34.47 76.19 31.90
  C 79.06 30.44 81.20 33.52 82.18 35.67
  Q 84.50 40.77 86.32 45.49
  Q 87.81 49.36 90.08 52.81
  Q 90.39 53.29 90.40 53.86
  Q 90.43 56.61 91.48 58.88
  A 1.99 1.97 -3.6 0 0 92.71 59.95
  Z
  M 57.22 69.67
  Q 60.50 65.22 64.84 62.94
  Q 69.64 60.43 76.20 57.40
  C 77.97 56.59 83.61 53.33 82.61 50.50
  C 81.66 47.86 81.83 45.00 80.12 42.65
  C 77.57 39.16 73.29 40.85 69.81 42.56
  Q 54.26 50.13 40.74 56.62
  C 39.21 57.35 37.66 57.64 36.11 58.25
  Q 35.54 58.47 35.50 59.08
  L 34.91 67.63
  Q 34.87 68.26 35.47 68.47
  Q 45.14 71.90 55.35 72.22
  A 1.02 1.02 0.0 0 0 56.25 71.74
  C 56.67 71.09 56.74 70.33 57.22 69.67
  Z
  M 76.20 98.32
  Q 88.46 99.14 99.69 100.25
  A 1.24 1.23 -73.1 0 0 100.90 99.60
  Q 105.18 91.45 104.99 82.25
  A 1.02 1.01 -81.2 0 0 104.31 81.32
  C 102.76 80.78 101.25 80.35 99.94 79.30
  Q 95.86 76.04 92.23 72.51
  C 89.02 69.39 82.91 69.41 78.64 69.27
  C 76.56 69.21 75.34 67.22 74.99 65.37
  A 0.30 0.30 0.0 0 0 74.56 65.17
  Q 69.38 67.99 63.89 71.20
  C 59.25 73.92 53.14 73.62 48.26 72.71
  Q 40.79 71.32 34.54 69.31
  Q 33.60 69.01 33.57 70.00
  L 33.47 74.73
  A 2.68 2.67 10.5 0 0 35.25 77.32
  Q 44.30 80.55 53.51 83.34
  Q 56.52 84.25 57.83 87.14
  Q 60.06 92.08 62.61 97.19
  A 1.58 1.57 78.2 0 0 63.93 98.06
  C 68.03 98.26 72.07 98.05 76.20 98.32
  Z
  M 126.59 78.52
  Q 125.56 78.15 124.47 78.04
  Q 122.76 77.86 123.81 79.23
  Q 124.20 79.74 124.78 80.03
  C 126.47 80.86 126.38 83.26 125.49 84.58
  Q 123.45 87.62 122.72 92.64
  Q 122.64 93.20 123.03 93.62
  C 123.90 94.58 125.43 94.29 126.59 94.32
  Q 127.79 94.36 128.40 93.34
  C 129.45 91.60 130.88 90.12 132.98 89.77
  Q 141.73 88.34 149.58 86.67
  Q 152.12 86.13 154.49 84.88
  Q 155.17 84.53 154.49 84.16
  Q 153.36 83.54 152.23 83.34
  Q 144.98 82.09 137.24 81.04
  Q 131.55 80.27 126.59 78.52
  Z
  M 132.59 108.14
  Q 143.76 107.25 155.56 103.95
  Q 158.42 103.15 160.88 101.93
  C 163.24 100.76 166.11 97.08 163.97 94.39
  Q 163.52 93.83 162.88 94.17
  Q 155.77 97.99 149.83 98.76
  C 141.45 99.84 132.43 101.12 123.75 101.53
  Q 107.78 102.29 90.45 100.82
  Q 79.16 99.86 67.98 99.44
  Q 61.59 99.20 57.23 98.73
  Q 51.81 98.14 48.17 98.17
  Q 41.34 98.23 34.87 97.02
  Q 34.09 96.88 34.06 97.67
  C 33.76 103.82 32.63 110.10 41.33 110.06
  Q 73.23 109.89 102.55 110.13
  Q 105.42 110.16 108.44 109.95
  Q 120.10 109.15 132.59 108.14
  Z"
/>
<path fill="#e77562" d="
  M 266.38 55.02
  A 0.47 0.47 0.0 0 0 267.08 55.43
  C 284.65 45.66 307.34 55.42 311.98 75.47
  Q 313.06 80.15 312.99 88.32
  Q 312.87 99.95 313.00 111.94
  Q 313.01 112.50 312.45 112.50
  L 297.99 112.50
  A 0.57 0.57 0.0 0 1 297.42 111.94
  Q 297.20 99.34 297.43 88.18
  Q 297.58 80.77 296.24 77.13
  C 292.51 67.02 279.76 64.14 271.53 71.24
  Q 266.42 75.65 266.39 82.96
  Q 266.35 97.28 266.40 111.85
  Q 266.40 112.50 265.75 112.50
  L 251.29 112.50
  A 0.46 0.45 90.0 0 1 250.84 112.04
  L 250.85 31.95
  Q 250.85 31.50 251.30 31.50
  L 265.69 31.50
  A 0.69 0.68 90.0 0 1 266.37 32.19
  L 266.38 55.02
  Z"
/>
<path fill="#e77562" d="
  M 490.51 83.11
  L 490.53 112.17
  A 0.33 0.33 0.0 0 1 490.20 112.50
  L 472.91 112.50
  A 0.33 0.33 0.0 0 1 472.58 112.17
  L 472.56 32.52
  A 0.33 0.33 0.0 0 1 473.16 32.33
  L 512.48 85.71
  A 0.33 0.33 0.0 0 0 513.02 85.71
  L 552.40 32.30
  A 0.33 0.33 0.0 0 1 553.00 32.49
  L 552.99 112.16
  A 0.33 0.33 0.0 0 1 552.66 112.49
  L 535.33 112.50
  A 0.33 0.33 0.0 0 1 535.00 112.17
  L 535.02 83.09
  A 0.33 0.33 0.0 0 0 534.42 82.89
  L 513.02 112.09
  A 0.33 0.33 0.0 0 1 512.48 112.09
  L 491.11 82.91
  A 0.33 0.33 0.0 0 0 490.51 83.11
  Z"
/>
<path fill="#e1ab98" d="
  M 191.02 32.87
  Q 183.65 46.62 192.83 55.40
  Q 194.93 58.17 198.83 59.39
  Q 207.86 62.22 214.42 63.94
  C 223.53 66.33 231.31 71.07 234.01 80.37
  Q 236.36 88.45 233.09 95.66
  C 228.03 106.82 214.27 111.61 202.51 110.86
  Q 183.62 109.66 176.32 92.86
  Q 174.78 89.33 175.04 85.19
  Q 175.09 84.51 175.77 84.50
  L 191.49 84.49
  Q 192.10 84.49 192.24 85.07
  C 194.53 94.62 207.61 94.49 214.57 90.85
  Q 218.96 88.55 217.31 84.02
  C 216.41 81.55 213.07 79.58 210.86 78.82
  Q 204.48 76.59 196.05 74.32
  Q 189.82 72.63 184.03 68.29
  Q 177.83 63.64 177.01 55.25
  Q 175.41 38.95 191.02 32.87
  Z"
/>
<circle fill="#e77562" cx="75.59" cy="45.23" r="1.58"/>
<circle fill="#e77562" cx="78.12" cy="51.31" r="1.49"/>
<path fill="#e77562" d="
  M 386.15 82.46
  A 30.84 30.84 0.0 0 1 355.31 113.30
  A 30.84 30.84 0.0 0 1 324.47 82.46
  A 30.84 30.84 0.0 0 1 355.31 51.62
  A 30.84 30.84 0.0 0 1 386.15 82.46
  Z
  M 370.72 82.43
  A 15.38 15.38 0.0 0 0 355.34 67.05
  A 15.38 15.38 0.0 0 0 339.96 82.43
  A 15.38 15.38 0.0 0 0 355.34 97.81
  A 15.38 15.38 0.0 0 0 370.72 82.43
  Z"
/>
<path fill="#e77562" d="
  M 413.79 89.22
  Q 415.21 92.42 418.05 94.67
  Q 424.56 99.83 432.92 97.16
  C 435.12 96.45 436.95 94.87 438.73 93.39
  Q 439.20 93.00 439.81 93.00
  L 456.21 93.02
  Q 457.00 93.02 456.67 93.74
  Q 449.22 109.80 433.59 112.85
  Q 423.32 114.86 414.06 110.34
  C 399.53 103.25 392.41 85.16 399.23 70.19
  Q 406.00 55.31 422.07 52.20
  C 443.37 48.08 462.02 66.92 458.16 88.14
  A 0.44 0.44 0.0 0 1 457.73 88.50
  L 414.27 88.49
  Q 413.47 88.49 413.79 89.22
  Z
  M 441.99 76.54
  C 439.01 70.29 433.62 66.62 426.62 67.08
  Q 417.68 67.66 413.30 76.58
  A 0.29 0.29 0.0 0 0 413.56 77.00
  L 441.70 77.00
  Q 442.21 77.00 441.99 76.54
  Z"
/>
<path fill="#e77562" d="
  M 585.24 91.60
  Q 586.11 92.43 587.98 94.22
  Q 591.41 97.49 596.13 97.96
  Q 603.41 98.69 608.78 93.48
  Q 609.28 93.00 609.97 93.00
  L 626.46 93.03
  Q 627.09 93.03 626.84 93.61
  Q 619.89 109.44 603.82 112.87
  C 599.04 113.89 592.36 113.59 587.66 111.81
  Q 572.75 106.19 568.20 91.24
  C 562.54 72.68 574.96 54.56 593.93 51.93
  Q 604.22 50.50 613.25 55.67
  C 624.21 61.95 630.76 75.19 628.38 87.94
  A 0.69 0.68 -84.3 0 1 627.71 88.50
  L 586.48 88.49
  Q 581.99 88.49 585.24 91.60
  Z
  M 594.79 67.33
  C 589.79 68.12 585.65 71.86 583.59 76.31
  Q 583.28 77.00 584.03 77.00
  L 611.94 77.01
  A 0.30 0.30 0.0 0 0 612.21 76.57
  Q 606.59 65.47 594.79 67.33
  Z"
/>
</svg>
