<?xml version="1.0" encoding="UTF-8" standalone="no"?>
<!DOCTYPE svg PUBLIC "-//W3C//DTD SVG 1.1//EN" "http://www.w3.org/Graphics/SVG/1.1/DTD/svg11.dtd">
<svg xmlns="http://www.w3.org/2000/svg" version="1.1" viewBox="0.00 0.00 236.00 236.00">
<path fill="#000000" d="
  M 80.71 76.38
  L 111.47 77.15
  A 0.60 0.60 0.0 0 1 112.05 77.68
  L 112.78 84.63
  A 0.60 0.60 0.0 0 1 112.17 85.29
  L 77.60 84.72
  A 0.60 0.60 0.0 0 1 77.06 83.89
  L 80.14 76.74
  A 0.60 0.60 0.0 0 1 80.71 76.38
  Z"
/>
<path fill="#000000" d="
  M 124.47 144.73
  Q 109.03 143.21 93.37 143.10
  A 1.71 1.71 0.0 0 1 91.78 142.02
  Q 89.83 137.16 87.81 132.55
  Q 87.64 132.16 87.34 131.86
  Q 86.83 131.35 86.48 131.98
  L 81.69 140.86
  A 1.87 1.86 -75.4 0 1 80.01 141.85
  Q 61.83 141.68 43.09 141.61
  A 0.04 0.04 0.0 0 1 43.05 141.55
  Q 45.97 136.68 49.10 132.03
  A 0.44 0.44 0.0 0 1 49.47 131.83
  Q 63.31 131.43 78.13 131.13
  Q 87.60 130.94 97.56 129.65
  Q 112.55 127.71 127.73 126.14
  Q 129.86 125.92 131.82 125.49
  Q 134.69 124.88 131.76 124.80
  L 55.25 122.75
  A 0.50 0.50 0.0 0 1 54.83 122.00
  L 60.32 112.67
  A 0.74 0.73 -74.9 0 1 60.93 112.31
  Q 99.87 110.93 140.56 109.82
  Q 140.86 109.82 140.98 109.53
  Q 141.14 109.16 140.74 109.10
  L 122.28 106.15
  A 0.66 0.65 -70.4 0 1 121.82 105.17
  L 128.71 93.26
  A 1.58 1.58 0.0 0 1 129.96 92.48
  L 154.00 90.78
  Q 154.47 90.75 154.60 90.30
  L 154.67 90.04
  Q 154.77 89.69 154.41 89.67
  Q 143.16 88.89 131.83 87.36
  A 0.26 0.26 0.0 0 1 131.63 87.01
  L 135.31 78.09
  A 0.35 0.34 -78.5 0 1 135.63 77.87
  Q 160.08 77.44 184.13 77.49
  Q 192.60 77.50 197.64 79.76
  C 199.55 80.61 200.55 82.99 201.27 84.82
  C 207.90 101.65 193.95 111.28 181.10 117.35
  A 0.48 0.48 0.0 0 0 181.05 118.19
  C 187.65 122.31 191.00 129.67 187.87 137.30
  C 184.35 145.86 175.64 152.57 167.23 156.41
  C 161.35 159.10 155.30 158.90 149.19 158.97
  Q 123.60 159.23 96.45 159.35
  Q 95.89 159.35 95.73 158.80
  L 92.73 148.45
  Q 92.47 147.53 93.43 147.45
  L 124.47 144.93
  Q 125.57 144.84 124.47 144.73
  Z
  M 163.23 94.25
  L 156.84 106.64
  A 0.76 0.76 0.0 0 0 157.30 107.71
  Q 164.03 109.74 169.73 106.83
  C 172.95 105.19 176.60 100.91 174.57 97.10
  C 172.85 93.87 168.33 93.13 165.02 93.14
  A 2.05 1.99 -76.1 0 0 163.23 94.25
  Z
  M 145.18 124.94
  C 142.51 129.62 140.10 134.49 137.19 139.09
  A 0.97 0.96 38.1 0 0 137.34 140.31
  Q 137.69 140.63 138.16 140.71
  C 144.73 141.84 150.56 141.83 156.07 137.57
  C 158.75 135.49 161.30 131.35 159.01 128.08
  C 156.46 124.46 150.40 123.70 146.44 124.11
  A 1.66 1.65 -78.1 0 0 145.18 124.94
  Z"
/>
<path fill="#000000" d="
  M 70.34 93.14
  L 114.61 92.13
  A 0.32 0.32 0.0 0 1 114.93 92.41
  L 116.27 105.09
  A 0.32 0.32 0.0 0 1 115.94 105.45
  L 65.50 103.58
  A 0.32 0.32 0.0 0 1 65.23 103.12
  L 70.06 93.31
  A 0.32 0.32 0.0 0 1 70.34 93.14
  Z"
/>
<path fill="#000000" d="
  M 38.38 151.29
  L 75.73 150.43
  A 0.32 0.32 0.0 0 1 76.02 150.91
  L 71.44 159.22
  A 0.32 0.32 0.0 0 1 71.16 159.38
  L 33.49 159.61
  A 0.32 0.32 0.0 0 1 33.22 159.11
  L 38.12 151.43
  A 0.32 0.32 0.0 0 1 38.38 151.29
  Z"
/>
</svg>
