<?xml version="1.0" encoding="UTF-8" standalone="no"?>
<!DOCTYPE svg PUBLIC "-//W3C//DTD SVG 1.1//EN" "http://www.w3.org/Graphics/SVG/1.1/DTD/svg11.dtd">
<svg xmlns="http://www.w3.org/2000/svg" version="1.1" viewBox="0.00 0.00 236.00 236.00">
<path fill="#000000" d="
  M 130.74 64.24
  L 132.20 62.63
  A 0.86 0.85 -38.2 0 1 133.58 62.79
  L 134.84 65.10
  Q 135.08 65.54 135.58 65.61
  C 149.02 67.51 160.08 77.96 169.88 86.44
  C 175.40 91.23 187.01 97.74 194.40 93.31
  C 200.78 89.48 202.69 83.65 205.86 76.04
  Q 209.74 66.75 218.21 62.48
  C 221.24 60.95 224.40 62.92 223.43 66.48
  C 222.36 70.40 218.42 71.80 215.14 73.46
  C 208.76 76.69 205.93 83.49 203.37 89.95
  C 201.89 93.69 199.15 96.47 195.89 98.60
  A 0.78 0.78 0.0 0 0 195.79 99.83
  C 199.66 103.36 200.50 113.96 200.32 119.30
  C 200.21 122.46 202.04 125.52 204.76 126.97
  A 2.71 2.70 14.5 0 1 206.20 129.41
  Q 206.14 132.95 208.44 135.95
  Q 208.88 136.53 208.63 137.21
  Q 207.52 140.18 208.08 143.25
  A 0.85 0.84 84.5 0 1 207.26 144.25
  C 201.18 144.36 200.30 137.07 200.81 132.48
  A 2.27 2.25 21.6 0 0 199.90 130.40
  Q 189.10 122.44 184.60 110.18
  C 182.62 104.78 177.94 101.29 172.17 101.29
  C 164.99 101.30 157.72 99.49 152.52 95.04
  Q 149.46 92.42 146.27 89.20
  A 0.96 0.96 0.0 0 0 144.87 89.24
  C 139.40 95.39 130.95 89.92 125.20 87.68
  A 0.93 0.93 0.0 0 0 123.95 88.36
  L 123.58 90.19
  A 1.16 1.16 0.0 0 1 122.51 91.11
  Q 120.36 91.22 118.97 89.84
  C 116.48 87.38 118.54 84.06 121.31 83.09
  Q 125.73 81.53 130.22 82.68
  A 1.28 1.28 0.0 0 0 131.78 81.72
  L 131.94 81.01
  A 2.18 2.18 0.0 0 0 130.52 78.48
  Q 128.21 77.68 126.12 78.49
  A 1.70 1.67 54.0 0 1 124.43 78.21
  L 120.36 74.82
  A 1.98 1.98 0.0 0 1 120.63 71.59
  Q 122.23 70.67 122.29 68.87
  Q 122.31 68.35 122.69 67.98
  C 123.76 66.94 125.24 66.53 126.03 65.22
  Q 126.73 64.04 127.34 62.79
  A 0.71 0.71 0.0 0 1 128.54 62.65
  L 129.79 64.21
  Q 130.25 64.78 130.74 64.24
  Z"
/>
<path fill="#000000" d="
  M 30.22 152.56
  A 0.47 0.47 0.0 0 0 29.75 153.03
  L 29.77 164.81
  A 0.37 0.36 0.0 0 1 29.40 165.17
  L 16.46 165.17
  A 0.47 0.46 0.0 0 1 15.99 164.71
  L 15.99 115.53
  A 0.49 0.48 90.0 0 1 16.47 115.04
  L 43.75 115.04
  A 4.46 4.46 0.0 0 1 48.21 119.50
  L 48.21 148.18
  A 4.39 4.38 -0.0 0 1 43.82 152.56
  L 30.22 152.56
  Z
  M 29.77 121.52
  L 29.73 145.90
  A 0.53 0.53 0.0 0 0 30.26 146.43
  L 31.75 146.43
  A 2.70 2.66 0.1 0 0 34.45 143.77
  L 34.49 123.65
  A 2.70 2.66 0.1 0 0 31.79 120.99
  L 30.30 120.99
  A 0.53 0.53 0.0 0 0 29.77 121.52
  Z"
/>
<path fill="#000000" d="
  M 68.73 159.10
  Q 69.09 159.22 69.43 159.11
  Q 71.27 158.52 71.27 156.58
  L 71.27 115.51
  A 0.47 0.47 0.0 0 1 71.74 115.04
  L 84.40 115.03
  Q 85.02 115.03 85.02 115.65
  L 85.02 161.08
  A 4.09 4.09 0.0 0 1 80.93 165.17
  L 56.99 165.18
  A 4.19 4.18 90.0 0 1 52.81 160.99
  L 52.86 115.84
  Q 52.86 115.05 53.66 115.05
  L 66.05 115.01
  A 0.54 0.54 0.0 0 1 66.59 115.55
  L 66.58 156.17
  Q 66.58 158.42 68.73 159.10
  Z"
/>
<path fill="#000000" d="
  M 122.53 121.64
  A 1.80 1.80 0.0 0 0 121.86 123.04
  L 121.88 164.73
  A 0.44 0.43 -0.0 0 1 121.44 165.16
  L 108.69 165.19
  A 0.50 0.50 0.0 0 1 108.19 164.69
  L 108.21 123.69
  Q 108.21 121.33 105.88 120.97
  Q 105.55 120.92 105.23 121.04
  Q 103.48 121.69 103.48 123.55
  L 103.50 164.48
  A 0.72 0.71 0.4 0 1 102.77 165.19
  L 90.10 165.14
  A 0.36 0.36 0.0 0 1 89.74 164.78
  Q 89.76 141.71 89.73 120.01
  Q 89.73 115.07 94.87 115.06
  Q 113.47 115.01 135.61 115.05
  C 138.77 115.05 140.36 117.26 140.35 120.17
  Q 140.26 144.01 140.33 164.41
  A 0.78 0.78 0.0 0 1 139.55 165.19
  L 127.24 165.16
  A 0.67 0.67 0.0 0 1 126.57 164.49
  L 126.59 123.50
  Q 126.59 121.16 124.25 121.00
  Q 123.39 120.95 122.53 121.64
  Z"
/>
<path fill="#000000" d="
  M 158.75 153.05
  L 158.75 164.46
  A 0.71 0.71 0.0 0 1 158.04 165.17
  L 145.72 165.20
  A 0.73 0.72 -90.0 0 1 145.00 164.47
  L 145.00 119.52
  A 4.48 4.48 0.0 0 1 149.48 115.04
  L 172.75 115.03
  A 4.47 4.47 0.0 0 1 177.23 119.50
  L 177.23 164.48
  A 0.71 0.70 -0.0 0 1 176.52 165.18
  L 163.96 165.19
  A 0.49 0.48 -0.0 0 1 163.47 164.71
  L 163.48 153.02
  Q 163.48 152.56 163.02 152.56
  L 159.20 152.59
  Q 158.75 152.59 158.75 153.05
  Z
  M 163.47 122.65
  A 1.44 1.44 0.0 0 0 162.03 121.21
  L 160.19 121.21
  A 1.44 1.44 0.0 0 0 158.75 122.65
  L 158.75 145.09
  A 1.44 1.44 0.0 0 0 160.19 146.53
  L 162.03 146.53
  A 1.44 1.44 0.0 0 0 163.47 145.09
  L 163.47 122.65
  Z"
/>
<path fill="#000000" d="
  M 184.96 164.87
  Q 186.34 163.53 186.94 161.98
  A 1.37 1.33 -45.8 0 0 186.94 161.05
  Q 186.13 158.95 184.06 158.52
  Q 183.87 158.48 183.91 158.30
  L 183.91 158.30
  Q 183.93 158.15 184.08 158.17
  C 188.23 158.63 188.78 163.81 184.96 164.87
  Z"
/>
<path fill="#000000" d="
  M 184.96 164.87
  Q 183.06 165.98 181.31 164.11
  Q 178.96 161.60 181.98 158.55
  Q 182.49 158.03 182.36 158.74
  Q 182.25 159.37 181.70 159.79
  Q 181.22 160.16 181.07 160.74
  C 180.40 163.26 182.55 165.04 184.96 164.87
  Z"
/>
<ellipse fill="#000000" cx="0.00" cy="0.00" transform="translate(183.84,161.46) rotate(90.8)" rx="1.84" ry="1.11"/>
</svg>
