<?xml version="1.0" encoding="UTF-8" standalone="no"?>
<!DOCTYPE svg PUBLIC "-//W3C//DTD SVG 1.1//EN" "http://www.w3.org/Graphics/SVG/1.1/DTD/svg11.dtd">
<svg xmlns="http://www.w3.org/2000/svg" version="1.1" viewBox="0.00 0.00 236.00 236.00">
<g stroke-width="2.00" fill="none" stroke-linecap="butt">
<path stroke="#838183" vector-effect="non-scaling-stroke" d="
  M 1.77 80.25
  Q 1.01 76.48 0.00 78.26"
/>
<path stroke="#838183" vector-effect="non-scaling-stroke" d="
  M 173.46 123.27
  Q 173.52 122.51 172.92 122.38
  Q 172.39 122.27 172.40 122.81
  L 172.67 132.21"
/>
</g>
<path fill="#19171a" d="
  M 1.77 80.25
  Q 1.01 76.48 0.00 78.26
  L 0.00 75.43
  Q 1.44 73.53 3.10 74.65
  A 2.04 1.95 62.6 0 0 4.03 74.97
  C 4.77 75.03 5.28 75.27 6.03 75.19
  Q 14.95 74.15 23.91 74.56
  Q 24.42 74.58 24.53 75.08
  Q 29.80 98.34 35.14 121.61
  C 35.18 121.77 35.37 122.01 35.53 122.07
  A 0.25 0.25 0.0 0 0 35.87 121.90
  L 47.44 74.96
  A 0.60 0.60 0.0 0 1 48.02 74.50
  L 220.24 74.51
  A 0.26 0.26 0.0 0 1 220.43 74.94
  L 206.45 90.29
  Q 206.08 90.70 205.52 90.70
  L 66.54 90.69
  Q 65.97 90.69 65.83 91.23
  L 47.16 160.13
  A 0.63 0.62 8.0 0 1 46.56 160.58
  L 25.19 160.61
  A 1.05 1.05 0.0 0 1 24.18 159.85
  L 1.77 80.25
  Z"
/>
<path fill="#edeaeb" d="
  M 1.77 80.25
  Q 0.81 80.14 0.00 79.62
  L 0.00 78.26
  Q 1.01 76.48 1.77 80.25
  Z"
/>
<path fill="#19171a" d="
  M 172.57 107.75
  Q 172.56 108.87 173.07 107.88
  C 176.28 101.73 182.11 98.40 188.72 97.38
  Q 198.38 95.90 207.41 97.50
  C 216.73 99.15 222.58 104.98 223.82 114.62
  Q 223.91 115.31 223.22 115.35
  L 206.49 116.34
  Q 205.66 116.39 205.53 115.56
  Q 204.75 110.47 200.46 108.97
  C 197.96 108.09 192.94 107.68 190.86 109.89
  C 186.65 114.36 191.40 117.18 195.34 117.92
  Q 203.65 119.48 212.61 122.59
  C 223.70 126.43 229.25 137.18 224.35 148.18
  C 220.62 156.57 212.55 160.50 203.61 161.30
  Q 193.15 162.23 184.36 159.93
  Q 177.54 158.15 173.58 152.47
  Q 172.64 151.11 172.63 152.76
  L 172.62 159.96
  Q 172.62 160.53 172.04 160.53
  L 155.01 160.59
  A 1.03 1.02 -17.3 0 1 154.14 160.14
  L 131.79 127.54
  Q 130.78 126.07 130.77 127.85
  L 130.61 159.73
  A 0.84 0.84 0.0 0 1 129.77 160.57
  L 99.69 160.54
  A 0.89 0.88 -8.4 0 1 98.84 159.92
  L 96.00 150.74
  Q 95.83 150.17 95.23 150.17
  L 74.28 150.12
  Q 73.64 150.12 73.46 150.73
  L 70.67 160.09
  A 0.66 0.64 -81.5 0 1 70.05 160.56
  L 51.46 160.58
  Q 50.85 160.58 51.06 160.00
  L 74.26 98.23
  A 0.79 0.78 10.1 0 1 75.00 97.72
  L 95.05 97.75
  Q 95.62 97.75 95.82 98.28
  L 111.88 141.13
  Q 112.02 141.51 112.29 141.22
  Q 112.51 140.99 112.51 140.66
  Q 112.48 122.71 112.47 98.05
  A 0.32 0.32 0.0 0 1 112.79 97.73
  L 130.24 97.73
  A 0.61 0.60 72.9 0 1 130.74 98.00
  L 153.54 131.49
  A 0.51 0.51 0.0 0 0 153.88 131.72
  Q 154.31 131.81 154.31 131.54
  Q 154.29 114.67 154.35 98.18
  Q 154.35 97.74 154.79 97.74
  L 172.08 97.72
  Q 172.69 97.72 172.68 98.33
  L 172.57 107.75
  Z
  M 78.01 135.93
  A 0.55 0.55 0.0 0 0 78.53 136.64
  L 91.09 136.64
  A 0.55 0.55 0.0 0 0 91.61 135.93
  L 85.34 115.50
  A 0.55 0.55 0.0 0 0 84.28 115.50
  L 78.01 135.93
  Z
  M 172.67 132.21
  L 172.78 138.96
  A 0.47 0.47 0.0 0 0 173.28 139.42
  L 186.81 138.71
  Q 187.48 138.67 187.57 139.33
  Q 189.15 150.37 200.76 149.24
  C 205.13 148.82 208.79 144.59 206.59 140.23
  C 205.30 137.68 201.85 136.39 199.26 135.77
  C 190.60 133.70 178.81 131.46 173.46 123.27
  Q 173.52 122.51 172.92 122.38
  Q 172.39 122.27 172.40 122.81
  L 172.67 132.21
  Z"
/>
<path fill="#edeaeb" d="
  M 173.46 123.27
  Q 172.89 122.79 172.88 123.50
  Q 172.79 127.86 172.67 132.21
  L 172.40 122.81
  Q 172.39 122.27 172.92 122.38
  Q 173.52 122.51 173.46 123.27
  Z"
/>
<path fill="#19171a" d="
  M 236.00 150.76
  L 236.00 153.28
  Q 234.85 155.97 233.07 156.86
  C 226.56 160.14 221.80 150.66 228.04 147.08
  Q 230.23 145.83 232.59 146.91
  Q 234.96 147.99 236.00 150.76
  Z
  M 234.97 152.03
  A 4.45 4.45 0.0 0 0 230.52 147.58
  A 4.45 4.45 0.0 0 0 226.07 152.03
  A 4.45 4.45 0.0 0 0 230.52 156.48
  A 4.45 4.45 0.0 0 0 234.97 152.03
  Z"
/>
<path fill="#19171a" d="
  M 229.52 153.25
  L 229.45 154.72
  Q 229.44 154.92 229.23 154.96
  L 228.75 155.04
  Q 228.13 155.14 228.13 154.50
  L 228.12 149.59
  Q 228.12 149.02 228.69 148.99
  Q 230.27 148.90 231.55 149.23
  Q 233.01 149.60 232.70 151.10
  Q 232.60 151.59 232.14 151.79
  Q 231.79 151.94 231.73 152.38
  A 0.60 0.59 -59.2 0 0 231.84 152.83
  Q 232.41 153.57 232.65 154.47
  Q 232.82 155.08 232.19 155.02
  Q 231.17 154.93 230.94 153.96
  Q 230.82 153.44 230.43 153.05
  Q 230.31 152.93 230.16 152.86
  Q 229.56 152.60 229.52 153.25
  Z
  M 230.3166 151.7800
  A 0.96 0.71 90.2 0 0 231.0300 150.8225
  A 0.96 0.71 90.2 0 0 230.3234 149.8600
  A 0.96 0.71 90.2 0 0 229.6100 150.8175
  A 0.96 0.71 90.2 0 0 230.3166 151.7800
  Z"
/>
</svg>
